<?xml version="1.0" encoding="UTF-8" standalone="no"?>
<!DOCTYPE svg PUBLIC "-//W3C//DTD SVG 1.1//EN" "http://www.w3.org/Graphics/SVG/1.1/DTD/svg11.dtd">
<!-- Generated by graphviz version 2.40.1 (20161225.0304)
 -->
<!-- Title: G Pages: 1 -->
<svg width="590pt" height="1242pt" viewBox="0.00 0.00 589.89 1242.00" xmlns="http://www.w3.org/2000/svg" xmlns:xlink="http://www.w3.org/1999/xlink">
<g id="graph0" class="graph" transform="scale(1 1) rotate(0) translate(36 1206)">
<title>G</title>
<polygon fill="#f7f7f7" stroke="transparent" points="-36,36 -36,-1206 553.8906,-1206 553.8906,36 -36,36"/>
<!-- appmodeluser -->
<g id="node1" class="node">
<title>appmodeluser</title>
<polygon fill="none" stroke="#000000" points="185,-380 0,-380 0,0 185,0 185,-380"/>
<polygon fill="#d3d3d3" stroke="transparent" points=".5,-342 .5,-380 185.5,-380 185.5,-342 .5,-342"/>
<polygon fill="none" stroke="#000000" points=".5,-342 .5,-380 185.5,-380 185.5,-342 .5,-342"/>
<text text-anchor="start" x="78.2251" y="-356.4" font-family="Helvetica Neue" font-size="14.00" fill="#333333">User</text>
<polygon fill="#ffffff" stroke="transparent" points=".5,-304 .5,-342 185.5,-342 185.5,-304 .5,-304"/>
<polygon fill="none" stroke="#000000" points=".5,-304 .5,-342 185.5,-342 185.5,-304 .5,-304"/>
<text text-anchor="start" x="11.5" y="-318.4" font-family="Helvetica Neue" font-size="14.00" fill="#333333">id_user (bigint)</text>
<polygon fill="#ffffff" stroke="transparent" points=".5,-266 .5,-304 185.5,-304 185.5,-266 .5,-266"/>
<polygon fill="none" stroke="#000000" points=".5,-266 .5,-304 185.5,-304 185.5,-266 .5,-266"/>
<text text-anchor="start" x="11.5" y="-280.4" font-family="Helvetica Neue" font-size="14.00" fill="#333333">name (string)</text>
<polygon fill="#ffffff" stroke="transparent" points=".5,-228 .5,-266 185.5,-266 185.5,-228 .5,-228"/>
<polygon fill="none" stroke="#000000" points=".5,-228 .5,-266 185.5,-266 185.5,-228 .5,-228"/>
<text text-anchor="start" x="11.3191" y="-242.4" font-family="Helvetica Neue" font-size="14.00" fill="#333333">id_user_category (integer)</text>
<polygon fill="#ffffff" stroke="transparent" points=".5,-190 .5,-228 185.5,-228 185.5,-190 .5,-190"/>
<polygon fill="none" stroke="#000000" points=".5,-190 .5,-228 185.5,-228 185.5,-190 .5,-190"/>
<text text-anchor="start" x="11.5" y="-204.4" font-family="Helvetica Neue" font-size="14.00" fill="#333333">document (string)</text>
<polygon fill="#ffffff" stroke="transparent" points=".5,-152 .5,-190 185.5,-190 185.5,-152 .5,-152"/>
<polygon fill="none" stroke="#000000" points=".5,-152 .5,-190 185.5,-190 185.5,-152 .5,-152"/>
<text text-anchor="start" x="11.5" y="-166.4" font-family="Helvetica Neue" font-size="14.00" fill="#333333">email (string)</text>
<polygon fill="#ffffff" stroke="transparent" points=".5,-114 .5,-152 185.5,-152 185.5,-114 .5,-114"/>
<polygon fill="none" stroke="#000000" points=".5,-114 .5,-152 185.5,-152 185.5,-114 .5,-114"/>
<text text-anchor="start" x="11.5" y="-128.4" font-family="Helvetica Neue" font-size="14.00" fill="#333333">password (string)</text>
<polygon fill="#ffffff" stroke="transparent" points=".5,-76 .5,-114 185.5,-114 185.5,-76 .5,-76"/>
<polygon fill="none" stroke="#000000" points=".5,-76 .5,-114 185.5,-114 185.5,-76 .5,-76"/>
<text text-anchor="start" x="11.5" y="-90.4" font-family="Helvetica Neue" font-size="14.00" fill="#333333">flag_excluido (integer)</text>
<polygon fill="#ffffff" stroke="transparent" points=".5,-38 .5,-76 185.5,-76 185.5,-38 .5,-38"/>
<polygon fill="none" stroke="#000000" points=".5,-38 .5,-76 185.5,-76 185.5,-38 .5,-38"/>
<text text-anchor="start" x="11.5" y="-52.4" font-family="Helvetica Neue" font-size="14.00" fill="#333333">created_at (datetime)</text>
<polygon fill="#ffffff" stroke="transparent" points=".5,0 .5,-38 185.5,-38 185.5,0 .5,0"/>
<polygon fill="none" stroke="#000000" points=".5,0 .5,-38 185.5,-38 185.5,0 .5,0"/>
<text text-anchor="start" x="11.5" y="-14.4" font-family="Helvetica Neue" font-size="14.00" fill="#333333">updated_at (datetime)</text>
</g>
<!-- appmodelusercategory -->
<g id="node2" class="node">
<title>appmodelusercategory</title>
<polygon fill="none" stroke="#000000" points="517.8906,-192 332.8906,-192 332.8906,-2 517.8906,-2 517.8906,-192"/>
<polygon fill="#d3d3d3" stroke="transparent" points="333.3906,-154 333.3906,-192 518.3906,-192 518.3906,-154 333.3906,-154"/>
<polygon fill="none" stroke="#000000" points="333.3906,-154 333.3906,-192 518.3906,-192 518.3906,-154 333.3906,-154"/>
<text text-anchor="start" x="382.7216" y="-168.4" font-family="Helvetica Neue" font-size="14.00" fill="#333333">UserCategory</text>
<polygon fill="#ffffff" stroke="transparent" points="333.3906,-116 333.3906,-154 518.3906,-154 518.3906,-116 333.3906,-116"/>
<polygon fill="none" stroke="#000000" points="333.3906,-116 333.3906,-154 518.3906,-154 518.3906,-116 333.3906,-116"/>
<text text-anchor="start" x="344.2097" y="-130.4" font-family="Helvetica Neue" font-size="14.00" fill="#333333">id_user_category (integer)</text>
<polygon fill="#ffffff" stroke="transparent" points="333.3906,-78 333.3906,-116 518.3906,-116 518.3906,-78 333.3906,-78"/>
<polygon fill="none" stroke="#000000" points="333.3906,-78 333.3906,-116 518.3906,-116 518.3906,-78 333.3906,-78"/>
<text text-anchor="start" x="344.3906" y="-92.4" font-family="Helvetica Neue" font-size="14.00" fill="#333333">category (string)</text>
<polygon fill="#ffffff" stroke="transparent" points="333.3906,-40 333.3906,-78 518.3906,-78 518.3906,-40 333.3906,-40"/>
<polygon fill="none" stroke="#000000" points="333.3906,-40 333.3906,-78 518.3906,-78 518.3906,-40 333.3906,-40"/>
<text text-anchor="start" x="344.3906" y="-54.4" font-family="Helvetica Neue" font-size="14.00" fill="#333333">created_at (datetime)</text>
<polygon fill="#ffffff" stroke="transparent" points="333.3906,-2 333.3906,-40 518.3906,-40 518.3906,-2 333.3906,-2"/>
<polygon fill="none" stroke="#000000" points="333.3906,-2 333.3906,-40 518.3906,-40 518.3906,-2 333.3906,-2"/>
<text text-anchor="start" x="344.3906" y="-16.4" font-family="Helvetica Neue" font-size="14.00" fill="#333333">updated_at (datetime)</text>
</g>
<!-- appmodeluser&#45;&gt;appmodelusercategory -->
<g id="edge1" class="edge">
<title>appmodeluser:id_user_category-&gt;appmodelusercategory:id_user_category</title>
<path fill="none" stroke="#f77f00" stroke-width="1.8" d="M193.4033,-240.6575C221.1157,-219.7411 308.9986,-153.4102 329.2156,-138.1512"/>
<polygon fill="#f77f00" stroke="#f77f00" stroke-width="1.8" points="192.9817,-240.9757 182.289,-243.4082 188.9909,-243.9878 185,-247 185,-247 185,-247 188.9909,-243.9878 187.711,-250.5918 192.9817,-240.9757 192.9817,-240.9757"/>
<polygon fill="#f77f00" stroke="#f77f00" stroke-width="1.8" points="329.5802,-131.6116 335.6046,-139.5933 334.0083,-140.7982 327.9839,-132.8164 329.5802,-131.6116"/>
<polyline fill="none" stroke="#f77f00" stroke-width="1.8" points="333.3906,-135 329.3997,-138.0122 "/>
<text text-anchor="middle" x="258.9453" y="-195.2" font-family="Helvetica Neue" font-size="14.00" fill="#000000"> </text>
<text text-anchor="middle" x="227.855" y="-176.8043" font-family="Helvetica Neue" font-size="14.00" fill="#000000">BelongsTo</text>
<text text-anchor="middle" x="227.855" y="-160.0043" font-family="Helvetica Neue" font-size="14.00" fill="#000000">category</text>
</g>
<!-- appmodelwallet -->
<g id="node3" class="node">
<title>appmodelwallet</title>
<polygon fill="none" stroke="#000000" points="504.3906,-492 346.3906,-492 346.3906,-264 504.3906,-264 504.3906,-492"/>
<polygon fill="#d3d3d3" stroke="transparent" points="346.3906,-454 346.3906,-492 504.3906,-492 504.3906,-454 346.3906,-454"/>
<polygon fill="none" stroke="#000000" points="346.3906,-454 346.3906,-492 504.3906,-492 504.3906,-454 346.3906,-454"/>
<text text-anchor="start" x="405.9488" y="-468.4" font-family="Helvetica Neue" font-size="14.00" fill="#333333">Wallet</text>
<polygon fill="#ffffff" stroke="transparent" points="346.3906,-416 346.3906,-454 504.3906,-454 504.3906,-416 346.3906,-416"/>
<polygon fill="none" stroke="#000000" points="346.3906,-416 346.3906,-454 504.3906,-454 504.3906,-416 346.3906,-416"/>
<text text-anchor="start" x="357.3906" y="-430.4" font-family="Helvetica Neue" font-size="14.00" fill="#333333">id_wallet (bigint)</text>
<polygon fill="#ffffff" stroke="transparent" points="346.3906,-378 346.3906,-416 504.3906,-416 504.3906,-378 346.3906,-378"/>
<polygon fill="none" stroke="#000000" points="346.3906,-378 346.3906,-416 504.3906,-416 504.3906,-378 346.3906,-378"/>
<text text-anchor="start" x="357.3906" y="-392.4" font-family="Helvetica Neue" font-size="14.00" fill="#333333">id_user (bigint)</text>
<polygon fill="#ffffff" stroke="transparent" points="346.3906,-340 346.3906,-378 504.3906,-378 504.3906,-340 346.3906,-340"/>
<polygon fill="none" stroke="#000000" points="346.3906,-340 346.3906,-378 504.3906,-378 504.3906,-340 346.3906,-340"/>
<text text-anchor="start" x="357.3906" y="-354.4" font-family="Helvetica Neue" font-size="14.00" fill="#333333">amount (decimal)</text>
<polygon fill="#ffffff" stroke="transparent" points="346.3906,-302 346.3906,-340 504.3906,-340 504.3906,-302 346.3906,-302"/>
<polygon fill="none" stroke="#000000" points="346.3906,-302 346.3906,-340 504.3906,-340 504.3906,-302 346.3906,-302"/>
<text text-anchor="start" x="357.3906" y="-316.4" font-family="Helvetica Neue" font-size="14.00" fill="#333333">created_at (datetime)</text>
<polygon fill="#ffffff" stroke="transparent" points="346.3906,-264 346.3906,-302 504.3906,-302 504.3906,-264 346.3906,-264"/>
<polygon fill="none" stroke="#000000" points="346.3906,-264 346.3906,-302 504.3906,-302 504.3906,-264 346.3906,-264"/>
<text text-anchor="start" x="356.9243" y="-278.4" font-family="Helvetica Neue" font-size="14.00" fill="#333333">updated_at (datetime)</text>
</g>
<!-- appmodeluser&#45;&gt;appmodelwallet -->
<g id="edge2" class="edge">
<title>appmodeluser:id_user-&gt;appmodelwallet:id_wallet</title>
<path fill="none" stroke="#f77f00" stroke-width="1.8" d="M193.2253,-328.7081C222.3879,-348.946 320.2618,-416.8674 342.0621,-431.9961"/>
<polygon fill="#f77f00" stroke="#f77f00" stroke-width="1.8" points="193.2155,-328.7014 187.5656,-319.303 189.1078,-325.8507 185,-323 185,-323 185,-323 189.1078,-325.8507 182.4344,-326.697 193.2155,-328.7014 193.2155,-328.7014"/>
<polygon fill="#f77f00" stroke="#f77f00" stroke-width="1.8" points="348.4197,-430.3221 342.7183,-438.5376 341.0752,-437.3974 346.7766,-429.1818 348.4197,-430.3221"/>
<polyline fill="none" stroke="#f77f00" stroke-width="1.8" points="346.3906,-435 342.2828,-432.1493 "/>
<text text-anchor="middle" x="258.9453" y="-379.2" font-family="Helvetica Neue" font-size="14.00" fill="#000000"> </text>
<text text-anchor="middle" x="301.0981" y="-367.7521" font-family="Helvetica Neue" font-size="14.00" fill="#000000">BelongsTo</text>
<text text-anchor="middle" x="301.0981" y="-350.9521" font-family="Helvetica Neue" font-size="14.00" fill="#000000">wallet</text>
</g>
<!-- appmodeltransaction -->
<g id="node4" class="node">
<title>appmodeltransaction</title>
<polygon fill="none" stroke="#000000" points="171.5,-718 13.5,-718 13.5,-452 171.5,-452 171.5,-718"/>
<polygon fill="#d3d3d3" stroke="transparent" points="13.5,-680 13.5,-718 171.5,-718 171.5,-680 13.5,-680"/>
<polygon fill="none" stroke="#000000" points="13.5,-680 13.5,-718 171.5,-718 171.5,-680 13.5,-680"/>
<text text-anchor="start" x="55.9383" y="-694.4" font-family="Helvetica Neue" font-size="14.00" fill="#333333">Transaction</text>
<polygon fill="#ffffff" stroke="transparent" points="13.5,-642 13.5,-680 171.5,-680 171.5,-642 13.5,-642"/>
<polygon fill="none" stroke="#000000" points="13.5,-642 13.5,-680 171.5,-680 171.5,-642 13.5,-642"/>
<text text-anchor="start" x="24.5" y="-656.4" font-family="Helvetica Neue" font-size="14.00" fill="#333333">id_transaction (bigint)</text>
<polygon fill="#ffffff" stroke="transparent" points="13.5,-604 13.5,-642 171.5,-642 171.5,-604 13.5,-604"/>
<polygon fill="none" stroke="#000000" points="13.5,-604 13.5,-642 171.5,-642 171.5,-604 13.5,-604"/>
<text text-anchor="start" x="24.5" y="-618.4" font-family="Helvetica Neue" font-size="14.00" fill="#333333">amount (decimal)</text>
<polygon fill="#ffffff" stroke="transparent" points="13.5,-566 13.5,-604 171.5,-604 171.5,-566 13.5,-566"/>
<polygon fill="none" stroke="#000000" points="13.5,-566 13.5,-604 171.5,-604 171.5,-566 13.5,-566"/>
<text text-anchor="start" x="24.5" y="-580.4" font-family="Helvetica Neue" font-size="14.00" fill="#333333">payer (bigint)</text>
<polygon fill="#ffffff" stroke="transparent" points="13.5,-528 13.5,-566 171.5,-566 171.5,-528 13.5,-528"/>
<polygon fill="none" stroke="#000000" points="13.5,-528 13.5,-566 171.5,-566 171.5,-528 13.5,-528"/>
<text text-anchor="start" x="24.5" y="-542.4" font-family="Helvetica Neue" font-size="14.00" fill="#333333">payee (bigint)</text>
<polygon fill="#ffffff" stroke="transparent" points="13.5,-490 13.5,-528 171.5,-528 171.5,-490 13.5,-490"/>
<polygon fill="none" stroke="#000000" points="13.5,-490 13.5,-528 171.5,-528 171.5,-490 13.5,-490"/>
<text text-anchor="start" x="24.5" y="-504.4" font-family="Helvetica Neue" font-size="14.00" fill="#333333">created_at (datetime)</text>
<polygon fill="#ffffff" stroke="transparent" points="13.5,-452 13.5,-490 171.5,-490 171.5,-452 13.5,-452"/>
<polygon fill="none" stroke="#000000" points="13.5,-452 13.5,-490 171.5,-490 171.5,-452 13.5,-452"/>
<text text-anchor="start" x="24.0337" y="-466.4" font-family="Helvetica Neue" font-size="14.00" fill="#333333">updated_at (datetime)</text>
</g>
<!-- appuser -->
<g id="node5" class="node">
<title>appuser</title>
<polygon fill="none" stroke="#000000" points="185,-1170 0,-1170 0,-790 185,-790 185,-1170"/>
<polygon fill="#d3d3d3" stroke="transparent" points=".5,-1132 .5,-1170 185.5,-1170 185.5,-1132 .5,-1132"/>
<polygon fill="none" stroke="#000000" points=".5,-1132 .5,-1170 185.5,-1170 185.5,-1132 .5,-1132"/>
<text text-anchor="start" x="78.2251" y="-1146.4" font-family="Helvetica Neue" font-size="14.00" fill="#333333">User</text>
<polygon fill="#ffffff" stroke="transparent" points=".5,-1094 .5,-1132 185.5,-1132 185.5,-1094 .5,-1094"/>
<polygon fill="none" stroke="#000000" points=".5,-1094 .5,-1132 185.5,-1132 185.5,-1094 .5,-1094"/>
<text text-anchor="start" x="11.5" y="-1108.4" font-family="Helvetica Neue" font-size="14.00" fill="#333333">id_user (bigint)</text>
<polygon fill="#ffffff" stroke="transparent" points=".5,-1056 .5,-1094 185.5,-1094 185.5,-1056 .5,-1056"/>
<polygon fill="none" stroke="#000000" points=".5,-1056 .5,-1094 185.5,-1094 185.5,-1056 .5,-1056"/>
<text text-anchor="start" x="11.5" y="-1070.4" font-family="Helvetica Neue" font-size="14.00" fill="#333333">name (string)</text>
<polygon fill="#ffffff" stroke="transparent" points=".5,-1018 .5,-1056 185.5,-1056 185.5,-1018 .5,-1018"/>
<polygon fill="none" stroke="#000000" points=".5,-1018 .5,-1056 185.5,-1056 185.5,-1018 .5,-1018"/>
<text text-anchor="start" x="11.3191" y="-1032.4" font-family="Helvetica Neue" font-size="14.00" fill="#333333">id_user_category (integer)</text>
<polygon fill="#ffffff" stroke="transparent" points=".5,-980 .5,-1018 185.5,-1018 185.5,-980 .5,-980"/>
<polygon fill="none" stroke="#000000" points=".5,-980 .5,-1018 185.5,-1018 185.5,-980 .5,-980"/>
<text text-anchor="start" x="11.5" y="-994.4" font-family="Helvetica Neue" font-size="14.00" fill="#333333">document (string)</text>
<polygon fill="#ffffff" stroke="transparent" points=".5,-942 .5,-980 185.5,-980 185.5,-942 .5,-942"/>
<polygon fill="none" stroke="#000000" points=".5,-942 .5,-980 185.5,-980 185.5,-942 .5,-942"/>
<text text-anchor="start" x="11.5" y="-956.4" font-family="Helvetica Neue" font-size="14.00" fill="#333333">email (string)</text>
<polygon fill="#ffffff" stroke="transparent" points=".5,-904 .5,-942 185.5,-942 185.5,-904 .5,-904"/>
<polygon fill="none" stroke="#000000" points=".5,-904 .5,-942 185.5,-942 185.5,-904 .5,-904"/>
<text text-anchor="start" x="11.5" y="-918.4" font-family="Helvetica Neue" font-size="14.00" fill="#333333">password (string)</text>
<polygon fill="#ffffff" stroke="transparent" points=".5,-866 .5,-904 185.5,-904 185.5,-866 .5,-866"/>
<polygon fill="none" stroke="#000000" points=".5,-866 .5,-904 185.5,-904 185.5,-866 .5,-866"/>
<text text-anchor="start" x="11.5" y="-880.4" font-family="Helvetica Neue" font-size="14.00" fill="#333333">flag_excluido (integer)</text>
<polygon fill="#ffffff" stroke="transparent" points=".5,-828 .5,-866 185.5,-866 185.5,-828 .5,-828"/>
<polygon fill="none" stroke="#000000" points=".5,-828 .5,-866 185.5,-866 185.5,-828 .5,-828"/>
<text text-anchor="start" x="11.5" y="-842.4" font-family="Helvetica Neue" font-size="14.00" fill="#333333">created_at (datetime)</text>
<polygon fill="#ffffff" stroke="transparent" points=".5,-790 .5,-828 185.5,-828 185.5,-790 .5,-790"/>
<polygon fill="none" stroke="#000000" points=".5,-790 .5,-828 185.5,-828 185.5,-790 .5,-790"/>
<text text-anchor="start" x="11.5" y="-804.4" font-family="Helvetica Neue" font-size="14.00" fill="#333333">updated_at (datetime)</text>
</g>
</g>
</svg>